<?xml version="1.0" encoding="utf-8"?>
<!-- Generator: Adobe Illustrator 19.0.1, SVG Export Plug-In . SVG Version: 6.00 Build 0)  -->
<svg version="1.1" id="Слой_1" xmlns="http://www.w3.org/2000/svg" xmlns:xlink="http://www.w3.org/1999/xlink" x="0px" y="0px"
	 viewBox="0 0 2000 900" style="enable-background:new 0 0 2000 900;" xml:space="preserve">
<style type="text/css">
	.st0{fill:#202020;}
	.st1{fill:#70FD00;}
	.st2{fill:#FDFE00;}
	.st3{fill:#00CFFC;}
</style>
<g>
	<g>
		<path class="st0" d="M1875,336.864624v30.7122192h-67.8825684v195.5584717h-32.3167725V367.5768433h-67.8825684V336.864624H1875z"
			/>
		<path class="st0" d="M1679.4415283,336.864624v226.2706909h-25.8587646l-116.3643799-162.26828v162.26828h-32.3300781V336.864624
			h25.8587646l116.3775635,162.2683105V336.864624H1679.4415283z"/>
		<path class="st0" d="M1397.4094238,336.864624l87.2700195,226.2706909h-33.9346924l-20.045166-51.7174988h-102.1461182
			l-20.0450439,51.7174988h-33.9346924L1361.84375,336.864624H1397.4094238z M1340.1938477,480.7056274h78.8653564
			l-39.4326172-101.8172302L1340.1938477,480.7056274z"/>
		<polygon class="st0" points="1185.5708008,563.135376 1095.5767822,336.864624 1127.6540527,336.864624 1198.9620361,516.8340454 
			1269.9852295,336.864624 1302.3640137,336.864624 1212.3704834,563.135376 		"/>
		<polygon class="st0" points="1045.8237305,563.135376 950.5974731,470.556427 925.1044312,495.3409729 925.1044312,563.135376 
			895.2341309,563.135376 895.2341309,336.864624 925.1044312,336.864624 925.1044312,454.2276917 1045.8237305,336.864624 
			1088.1134033,336.864624 971.7420654,450 1088.1134033,563.135376 		"/>
	</g>
	<g>
		<path class="st1" d="M385.3855591,435.1018677c0,0,8.853302-14.2799072,21.3829346-24.7814941
			s14.9342651-18.6412659,14.9342651-18.6412659l64.344635-26.4483948l21.8491516,4.1450806
			c0,0,5.041626,6.5912476,5.9036255,4.9342041c0.8619995-1.6570129,15.2752075-5.5265198,15.2752075-5.5265198l7.8989258,0.4500122
			l24.4707642-0.0552673l13.8163452,14.2110901l-3.9475708,25.658905l-28.4221191,15.5397339l-30.7907104,17.6194458
			l-19.7375793-13.026825l-44.0148926-4.5926208l-40.8568726,7.355896L385.3855591,435.1018677z"/>
		<path class="st2" d="M370.6329346,463.0324097c0,0,68.7791443-49.6419373,132.7562866-14.1142273l-13.7890625,41.0542297
			l2.3684998,21.3166199c0,0-17.1977234-14.7884827-39.5704346-15.3899231s-56.3543701,0.4622192-56.3543701,0.4622192
			s-27.6326294-10.7311707-27.6326294-11.9154358S370.6329346,463.0324097,370.6329346,463.0324097z"/>
		<path class="st3" d="M373.5429993,448.9181824l-3.2973633,17.6629028l-1.5898743,15.0478516l24.6248474,17.4227905
			l57.6338196,2.3684998l19.342865,9.8688049v8.6845398H368.0960693c-17.4487,0-19.4677734-0.1882935-25.34375-6.9081421
			c-8.0837708-9.2447205-10.1213074-28.6004639,14.2110901-53.0941772L373.5429993,448.9181824z"/>
		<path class="st2" d="M517.4973755,460.5756226c0,0-18.6205444,10.8434448-13.0940247,32.1600647
			c5.5265503,21.3166199,16.3822327,25.2641296,35.1329651,23.8825378c0,0-8.6845703-29.6064453-9.2766724-30.0011902
			C529.6674805,486.22229,517.4973755,460.5756226,517.4973755,460.5756226z"/>
		<path class="st0" d="M553.6810913,520.8691406c-4.9856567-6.8823853-14.3568115-21.4843445-21.0899658-41.9567261
			c-1.3484497-4.1032715-2.5015259-8.6297913-3.737793-14.6736755c-0.4501953-2.2022705-1.2921143-5.29953-2.8475952-8.8583679
			c-2.2686157,1.5398865-4.7518921,2.6746216-7.0847168,4.2210083c-1.7824707,1.1815186-3.4002686,2.4254761-5.1208496,3.5124512
			c0.550354,1.5393066,0.9108887,2.8994751,1.1300659,3.9710693c1.350769,6.6036072,2.6333618,11.6205139,4.1610718,16.2661743
			c7.3356934,22.3042603,17.6100464,38.3044434,23.0825806,45.8563843
			c3.6915894,5.0944214,9.6383057,8.1348267,15.9088135,8.1348267h10.4678345v-14.2110596h-10.4678345
			C556.3537598,523.1312256,554.7080688,522.2858276,553.6810913,520.8691406z"/>
		<path class="st0" d="M401.0186462,416.1917725c16.520752-18.096344,42.1324768-34.8971252,81.0241699-43.428772
			c8.6837158-1.9049683,16.6515808-3.1621704,23.9395447-3.8885803v-14.2390747
			c-8.3345947,0.7497253-17.3243713,2.127533-26.9834595,4.247345
			c-41.2130737,9.0403442-74.2589111,28.4163513-95.5628052,56.0335999
			c-2.4729004,3.2053833-4.7133179,6.4388123-6.757019,9.6716614c2.282074-1.0046387,4.5589294-2.036377,6.8892822-2.9670715
			C389.1919861,419.3749695,395.1890259,417.9464722,401.0186462,416.1917725z"/>
		<path class="st0" d="M581.0878296,381.3840027c-4.7251587-12.6715698-19.552063-23.1877747-44.1135254-26.4089355V369.23349
			c18.3323975,2.7711182,28.2208862,10.1846008,30.7906494,17.1006775
			c3.0198975,8.1121216-2.8895264,17.3730469-15.4307251,24.1588135
			c-8.9766235,4.8673401-17.1481934,9.4859009-24.4905396,14.0926819c0,0-0.0236816,0.0118408-0.0828247,0.035553
			c-1.3856201,0.6986694-21.1863708,10.87146-34.6869202,30.7077637c-0.0828247-0.0118408-0.1776733-0.0237122-0.2723694-0.035553
			c-1.9303284,2.8658752-3.5764771,5.802887-4.9265442,8.8227234c-0.0237122,0.0473328-0.0473938,0.1066284-0.0709839,0.1539612
			c-1.9777527,4.4172668-3.3276672,8.9884644-4.0620422,13.7492065v0.0118408
			c-0.9710388,6.2647095-0.8763428,12.8373718,0.2723389,19.7770996
			c5.4832764,33.2894592,25.4971008,38.6423035,41.5082397,39.4357605v-14.1992188
			c-13.1098022-0.6276855-23.7088318-4.6068115-27.4865417-27.5458374
			c-1.5395813-9.3082581-0.6987915-17.3730469,2.451355-24.7627869h0.0118713c0,0,0-0.0237122,0.0237122-0.0592651
			c0.4500122-1.0895081,0.9710083-2.1671448,1.5394287-3.2330017c2.8068237-4.9739075,10.2557068-15.1466064,28.5406799-27.6760864
			c8.0647583-5.3647156,17.5625-10.8477478,28.5050049-16.769043
			C578.0443726,412.7312317,586.6657715,396.4003601,581.0878296,381.3840027z"/>
		<path class="st0" d="M452.3982239,495.8991089c-3.6499329-0.1538086-7.7751465-0.2440186-12.1420898-0.3388672
			c-23.3150635-0.5076904-66.7127686-1.4537048-66.7127686-17.8748779c0-4.4163208,0.7547607-10.3824768,2.6235352-17.2583008
			c-5.7771606,2.5667114-11.4247742,5.4307861-16.3172302,9.2444153c-0.3470764,2.8774414-0.5173645,5.5687561-0.5173645,8.0138855
			c0,30.3257751,48.5117188,31.3828125,80.6138611,32.082489c4.2929382,0.093689,8.3476257,0.1815796,11.8529968,0.33078
			c6.5457764,0.2763977,11.1810303,2.0631714,13.7773743,5.3117676c1.5959778,1.9973145,2.3326721,4.3947144,2.6437683,6.5365601
			H355.3840027c-7.3356934,0-12.7839661-3.3364868-16.657074-10.2014771
			c-3.7331848-6.6163635-4.4559937-14.8737488-1.9833984-22.6558533c1.3902588-4.3743286,3.5127258-8.4325562,6.1794739-12.2075806
			c13.1045837-18.3145142,53.8695068-34.4718323,53.8695068-34.4718323l0.0072327-0.005188
			c18.6562195-6.5060425,34.8557739-9.329071,37.1557617-9.7098389c28.0572815-1.8554688,46.4348145,2.155426,58.4807739,8.1405945
			c3.8773193-3.1365051,7.4071045-6.6791382,10.9529419-10.2053833
			c-12.1820068-7.2170105-30.0566101-12.5961914-56.2877808-12.5961914c-4.5531311,0-9.3607178,0.1619263-14.429657,0.5042419
			l-0.6002197,0.065918c-0.3209229,0.0494385-1.2692566,0.2000732-2.7258606,0.4616699l0.0004272-0.0003662
			c-0.0050659,0.000946-0.0097046,0.0019531-0.01474,0.0028992c-3.4006958,0.6110535-9.6051941,1.8347778-17.4028931,3.8577881
			c-0.002594,0.0214844-0.0090942,0.0423584-0.0119934,0.0638123
			c-22.2237549,5.8422852-38.6214905,13.4641418-48.0030212,18.5048218
			c-0.0435181-0.0209656-0.0925293-0.0332642-0.1354675-0.0551453c-2.4623108,1.3621216-4.8848877,2.8041382-7.2573242,4.3154907
			c-1.1086426,0.6946716-1.6935425,1.0954895-1.6935425,1.0954895l-0.0154724,0.0184937
			c-14.3917847,9.5048523-26.5213013,21.8969727-31.6119385,37.915802
			c-3.6637878,11.5314636-2.5153809,23.903717,3.1502991,33.9433289
			c6.4336243,11.4030762,16.4732056,17.4295654,29.0339661,17.4295654h125.6422424l1.1345215-5.7223511
			c0.275238-1.3831787,2.4564209-13.8016357-5.3603821-23.7429504
			C471.5313721,499.9919739,463.3213806,496.3616943,452.3982239,495.8991089z"/>
		<path class="st0" d="M515.9502563,378.0597839c-9.1965027,0-16.6790466-7.4814148-16.6790466-16.6779175
			c0-9.1964722,7.4825439-16.677887,16.6790466-16.677887c9.1964722,0,16.6779175,7.4814148,16.6779175,16.677887
			C532.6281738,370.5783691,525.1467285,378.0597839,515.9502563,378.0597839z M515.9502563,355.3622742
			c-3.3203125,0-6.020752,2.7004395-6.020752,6.0195923s2.7004395,6.0195923,6.020752,6.0195923
			c3.3191528,0,6.0195923-2.7004395,6.0195923-6.0195923S519.2694092,355.3622742,515.9502563,355.3622742z"/>
		<path class="st0" d="M455.8502197,789.3331909c-54.0601501,0-104.6835938-35.6463623-142.5457458-100.373291
			C275.9227295,625.0535278,255.335144,540.18927,255.335144,450s20.5875854-175.0534973,57.9693298-238.9599152
			c37.8621521-64.726944,88.4855957-100.3732834,142.5457458-100.3732834s104.6835938,35.6463394,142.5457764,100.3732834
			C635.77771,274.9465027,656.3652954,359.8106995,656.3652954,450S635.77771,625.0535278,598.3959961,688.9598999
			C560.5338135,753.6868286,509.9103699,789.3331909,455.8502197,789.3331909z M455.8502197,120.4084244
			c-105.1925659,0-190.7734375,147.854187-190.7734375,329.5915833s85.5808716,329.5915527,190.7734375,329.5915527
			S646.6236572,631.7374268,646.6236572,450S561.0427856,120.4084244,455.8502197,120.4084244z"/>
		<path class="st0" d="M655.2601929,717.1462402c-17.7241211,0-36.9718628-1.8939209-57.5602417-5.7277832
			c-77.803772-14.4863892-165.8422852-54.9758301-247.899292-114.0098267
			c-82.0569763-59.0332031-148.4328918-129.6338196-186.9015198-198.7955322
			c-39.0965118-70.2906189-44.8052826-130.9958191-16.0735168-170.932663
			c28.730957-39.9376373,88.1003265-53.8238983,167.1748962-39.0988922
			c77.803772,14.4863892,165.8422546,54.9757996,247.8992615,114.0098267
			c82.0570068,59.0332031,148.4329224,129.6338196,186.9015503,198.7955322
			c39.0964966,70.2906494,44.8052368,130.9957886,16.0734863,170.9326782
			C743.6245117,701.857605,705.6077271,717.1462402,655.2601929,717.1462402z M256.2999573,192.5731659
			c-47.0155334,0-82.2163544,13.898941-101.5671997,40.7962189
			c-26.4017944,36.6999512-20.4781799,93.7028809,16.6799927,160.5084534
			c37.7860413,67.9353027,103.1590881,137.4093933,184.0768738,195.6236877
			c80.9177856,58.2134399,167.5697021,98.1106567,243.9932251,112.34021
			c75.1519775,13.9916992,131.0822754,1.4880371,157.4848633-35.2111206
			c26.4017944-36.6999512,20.4781494-93.7028809-16.6799927-160.5084534
			c-37.7860718-67.9353027-103.1591187-137.4093933-184.0769043-195.6236572
			c-80.9177856-58.213501-167.5697021-98.1107025-243.9932556-112.3402252
			C292.1452942,194.4211273,273.4334106,192.5731659,256.2999573,192.5731659z"/>
		<path class="st0" d="M256.2262268,712.4300537c-53.3720093,0-93.2065887-16.2510986-114.5687103-47.4753418
			c-27.7796402-40.6043701-20.6375275-101.1581421,20.1087494-170.5053711
			C201.85849,426.2159424,269.8849487,357.204071,353.3142395,300.125824
			c83.4285278-57.0774384,172.400116-95.4755096,250.5233459-108.1194916
			c79.4003906-12.8492889,138.4265137,2.4346161,166.2053223,43.0389862
			c27.7796631,40.6043701,20.6375732,101.1581421-20.1087036,170.5053406
			C709.84198,473.7840576,641.8154907,542.7959595,558.3861694,599.8741455
			c-83.4284668,57.0774536-172.4000549,95.4755249-250.5233154,108.1195068
			C289.5204163,710.9625854,272.2601013,712.4300537,256.2262268,712.4300537z M356.0643921,304.1459961l2.7501221,4.0201721
			c-82.2710266,56.2854614-149.2676849,124.1953735-188.6488037,191.2181702
			c-38.727066,65.9089966-45.9960251,122.7565308-20.467865,160.0700684
			c25.5281525,37.3127441,81.1437225,51.1348267,156.6087952,38.9229126
			c76.7382813-12.4196167,164.3082275-50.2579956,246.5792847-106.543457S702.1536255,467.6384583,741.534729,400.6156616
			c38.7270508-65.9089661,45.9960327-122.7565002,20.4678955-160.0700684
			c-25.5274048-37.3127594-81.1469116-51.1363831-156.6088257-38.9228973
			c-76.7382813,12.419632-164.3082275,50.2579956-246.5792847,106.5434723L356.0643921,304.1459961z"/>
		<circle class="st0" cx="676.9310913" cy="193.4692078" r="25.437851"/>
		<circle class="st0" cx="255.0631866" cy="712.2295532" r="25.437851"/>
	</g>
</g>
</svg>
